<?xml version="1.0" encoding="utf-8"?>
<!-- Svg Vector Icons : http://www.onlinewebfonts.com/icon -->
<!DOCTYPE svg PUBLIC "-//W3C//DTD SVG 1.1//EN" "http://www.w3.org/Graphics/SVG/1.1/DTD/svg11.dtd">
<svg version="1.1" xmlns="http://www.w3.org/2000/svg" xmlns:xlink="http://www.w3.org/1999/xlink" x="0px" y="0px" viewBox="0 0 256 256" enable-background="new 0 0 256 256" xml:space="preserve">
<metadata> Svg Vector Icons : http://www.onlinewebfonts.com/icon </metadata>
<g><g><path fill="#000000" d="M217.2,123.7V92.5c0-9.3-3.8-16.1-13.1-16.1h-47.5c-9.3,0-17,6.9-17,16.1v2.8v28.4c-17.3,10.7-24,26.9-26.3,45.5c0,0,0,0,0,0.1c-0.4,2.7-0.6,5.5-0.6,8.3c0,37.3,30.3,67.5,67.6,67.5c37.3,0,65.6-30.2,65.6-67.5C246,155.6,234.5,136,217.2,123.7z M180.4,92.9c5.1,0,9.2,4.1,9.2,9.2s-4.1,9.2-9.2,9.2c-5.1,0-9.2-4.1-9.2-9.2S175.3,92.9,180.4,92.9z M206.7,203.9c-7,7-16.4,10.9-26.3,10.9c-9.9,0-19.3-3.9-26.3-10.9c-4.7-4.7-8-10.5-9.7-16.8c-0.4-1.5-0.7-3-0.9-4.5c0-0.1,0-0.3,0-0.5c-0.1-0.6-0.1-1.2-0.2-1.8c0-0.2,0-0.4,0-0.6c0-0.7-0.1-1.5-0.1-2.2c0-0.7,0-1.4,0.1-2.1c0-0.2,0-0.4,0-0.5c0-0.5,0.1-1.1,0.1-1.6c0-0.2,0-0.3,0.1-0.5c0.1-0.6,0.1-1.1,0.2-1.7c0-0.1,0-0.2,0.1-0.3c0.1-0.7,0.3-1.3,0.4-2c1.6-6.6,4.9-12.6,9.8-17.5c7-7,16.4-10.9,26.3-10.9c9.9,0,19.3,3.9,26.3,10.9c7,7,10.9,16.4,10.9,26.3C217.6,187.5,213.7,196.9,206.7,203.9z"/><path fill="#000000" d="M104.8,203.9c-4,4.3-8.9,7.6-14.6,9.7c-9.3,3.4-19.4,2.9-28.4-1.3c-9-4.2-15.8-11.7-19.2-21c-3.4-9.3-2.9-19.4,1.3-28.4c4.2-9,11.7-15.8,21-19.2c9.3-3.4,19.4-2.9,28.4,1.3c4.2,2,7.9,4.6,11,7.9c1.3-4,2.6-7.9,4.5-11.6c4.5-8.9,13.6-16.9,17.9-23.6V92.5c0-1,0.3-2,0.5-3.1L99,76.3c-8.4-3.9-18.4-0.3-22.3,8.1l-13.2,28.2c-20,4.2-37.9,17.5-47.2,37.4c-15.8,33.8-1.2,73.9,32.6,89.7c24.4,11.4,52.1,7,71.5-9.1c-5.8-6.5-10.4-13.8-13.8-21.9C105.9,207.2,105.3,205.6,104.8,203.9z M108,97.4c5.1,0,9.2,4.1,9.2,9.2s-4.1,9.2-9.2,9.2c-5.1,0-9.2-4.1-9.2-9.2S102.9,97.4,108,97.4z"/><path fill="#000000" d="M122.3,79.8c12.7,0,23.1-10.4,23.1-23.1c0-0.3,0-0.6,0-0.9c1.1,0.2,2.2,0.3,3.4,0.3c3.5,0,6.8-0.8,9.7-2.2c3,9.2,11.7,15.9,22,15.9c12.7,0,23.1-10.4,23.1-23.1c0-12.7-10.4-23.1-23.1-23.1c-3.5,0-6.8,0.8-9.7,2.2c-3-9.2-11.7-15.9-22-15.9c-12.7,0-23.1,10.4-23.1,23.1c0,0.3,0,0.6,0,0.9c-1.1-0.2-2.2-0.3-3.4-0.3c-12.7,0-23.1,10.4-23.1,23.1S109.5,79.8,122.3,79.8z M180.4,36.2c5.8,0,10.5,4.7,10.5,10.5c0,5.8-4.7,10.5-10.5,10.5c-5.8,0-10.5-4.7-10.5-10.5C169.9,40.9,174.6,36.2,180.4,36.2z M148.7,22.5c5.8,0,10.5,4.7,10.5,10.5s-4.7,10.5-10.5,10.5s-10.5-4.7-10.5-10.5S142.9,22.5,148.7,22.5z M122.3,46.2c5.8,0,10.5,4.7,10.5,10.5c0,5.8-4.7,10.5-10.5,10.5s-10.5-4.7-10.5-10.5C111.7,50.9,116.5,46.2,122.3,46.2z"/></g></g>
</svg>